<svg xmlns="http://www.w3.org/2000/svg" width="75" height="75" viewBox="0 0 75 75" fill="none">
<path d="M14.6937 56.4125C17.8458 54.0021 21.3687 52.1016 25.2625 50.711C29.1562 49.3203 33.2354 48.625 37.5 48.625C41.7646 48.625 45.8437 49.3203 49.7375 50.711C53.6312 52.1016 57.1542 54.0021 60.3062 56.4125C62.4694 53.8785 64.1536 51.0045 65.3588 47.7906C66.5641 44.5768 67.1667 41.1465 67.1667 37.5C67.1667 29.2799 64.2773 22.2804 58.4984 16.5016C52.7196 10.7228 45.7201 7.83335 37.5 7.83335C29.2799 7.83335 22.2804 10.7228 16.5016 16.5016C10.7227 22.2804 7.83332 29.2799 7.83332 37.5C7.83332 41.1465 8.43593 44.5768 9.64114 47.7906C10.8463 51.0045 12.5305 53.8785 14.6937 56.4125ZM37.5 41.2084C33.8535 41.2084 30.7786 39.9568 28.2755 37.4537C25.7724 34.9505 24.5208 31.8757 24.5208 28.2292C24.5208 24.5827 25.7724 21.5078 28.2755 19.0047C30.7786 16.5016 33.8535 15.25 37.5 15.25C41.1465 15.25 44.2213 16.5016 46.7245 19.0047C49.2276 21.5078 50.4792 24.5827 50.4792 28.2292C50.4792 31.8757 49.2276 34.9505 46.7245 37.4537C44.2213 39.9568 41.1465 41.2084 37.5 41.2084ZM37.5 74.5834C32.3701 74.5834 27.5493 73.6099 23.0375 71.663C18.5257 69.7162 14.601 67.074 11.2635 63.7365C7.92603 60.399 5.28384 56.4743 3.33697 51.9625C1.39009 47.4507 0.416656 42.6299 0.416656 37.5C0.416656 32.3702 1.39009 27.5493 3.33697 23.0375C5.28384 18.5257 7.92603 14.6011 11.2635 11.2636C14.601 7.92606 18.5257 5.28387 23.0375 3.337C27.5493 1.39012 32.3701 0.416687 37.5 0.416687C42.6299 0.416687 47.4507 1.39012 51.9625 3.337C56.4743 5.28387 60.399 7.92606 63.7365 11.2636C67.074 14.6011 69.7161 18.5257 71.663 23.0375C73.6099 27.5493 74.5833 32.3702 74.5833 37.5C74.5833 42.6299 73.6099 47.4507 71.663 51.9625C69.7161 56.4743 67.074 60.399 63.7365 63.7365C60.399 67.074 56.4743 69.7162 51.9625 71.663C47.4507 73.6099 42.6299 74.5834 37.5 74.5834Z" fill="#178C00"/>
</svg>