<svg xmlns="http://www.w3.org/2000/svg" width="74" height="74" viewBox="0 0 74 74" fill="none">
<path d="M36.5057 0.00336256C16.0728 0.276839 -0.268527 17.0643 0.00334373 37.4979C0.276823 57.9226 17.0629 74.2685 37.4951 73.9967C57.924 73.7216 74.2685 56.9341 73.9967 36.5021C73.7232 16.0758 56.9363 -0.26931 36.5057 0.00336256ZM36.3963 59.5217L36.192 59.5185C33.0454 59.4251 30.827 57.107 30.9163 54.0071C31.0039 50.9602 33.2762 48.7483 36.3191 48.7483L36.5017 48.7515C39.736 48.8472 41.9295 51.142 41.8386 54.3312C41.7485 57.3869 39.5116 59.5217 36.3963 59.5217ZM49.632 33.2526C48.892 34.3038 47.2648 35.6093 45.2145 37.2067L42.9566 38.7655C41.7171 39.7291 40.9691 40.6357 40.6884 41.5277C40.4672 42.2299 40.3586 42.4157 40.3393 43.8442L40.3361 44.2069H31.715L31.7399 43.4774C31.8453 40.4788 31.9193 38.7149 33.162 37.2574C35.1118 34.9682 39.4127 32.1989 39.5952 32.0814C40.2114 31.6173 40.731 31.0889 41.1179 30.5242C42.0228 29.2767 42.4234 28.2946 42.4234 27.3294C42.4234 25.9901 42.026 24.7514 41.2401 23.6487C40.4849 22.5845 39.0499 22.0456 36.9747 22.0456C34.9163 22.0456 33.5071 22.6988 32.6641 24.0388C31.797 25.4166 31.3587 26.8637 31.3587 28.342V28.7096H22.4697L22.4858 28.326C22.7151 22.8813 24.6584 18.961 28.2595 16.6734C30.5221 15.2167 33.3374 14.4784 36.6224 14.4784C40.9224 14.4784 44.5525 15.5232 47.4103 17.5839C50.306 19.672 51.7748 22.7993 51.7748 26.8789C51.7748 29.1609 51.0541 31.3044 49.632 33.2526Z" fill="#178C00"/>
</svg>